# xmcd CD database file
# Copyright (C) 1995-1998 Ti Kan
#
# Track frame offsets:
#	150
#	18560
#	36997
#
# Disc length: 715 seconds
#
# Revision: 1
# Processed by: cddbd v1.4b41PL2 Copyright (c) Steve Scherf et al.
# Submitted via: CDex 1.30
#
DISCID=1f02c903
DTITLE=LeAnn Rimes - Commitment/Looking Through Your Eyes Single
DYEAR=2001
DGENRE=Country
TTITLE0=Commitment
TTITLE1=Looking Through Your Eyes
TTITLE2=One Way Ticket (Because I Can)
EXTD=\nYEAR: 2001  ID3G:   2
EXTT0=
EXTT1=
EXTT2=
PLAYORDER=
